PathFileType	4	(X/Y/Z)	D:\TRACE\v60_Jaco2_6-2-23\BothDRS_Motion1_7-v60.trc
DataRate	CameraRate	NumFrames	NumMarkers	Units	OrigDataRate	OrigDataStartFrame	OrigNumFrames
100.00	100.00	      17	9	mm	100.00	2813	      7500
Frame#	Time	front left toe			Front right toe			aft left toe			aft right toe			Arm			FL body			FR body			AL Body			AR Body			
		X1	Y1	Z1	X2	Y2	Z2	X3	Y3	Z3	X4	Y4	Z4	X5	Y5	Z5	X6	Y6	Z6	X7	Y7	Z7	X8	Y8	Z8	X9	Y9	Z9	

2813	28.120	-137.24524	127.85677	-294.27203	231.09270	28.68226	-303.32578	-137.84427	1.58358	329.52704	271.12949	89.59475	312.70081	90.83944	1146.33044	-711.68030	-32.10743	592.10846	-433.36011	127.51608	587.58057	-440.99927	7.86623	556.92145	510.85040	163.15640	545.79974	503.84698	
2814	28.130	-136.02887	118.40182	-294.06567	230.63206	28.55404	-303.21423	-138.31908	1.52311	329.49268	272.56091	79.74557	313.57999	92.77148	1146.76428	-712.24182	-32.43511	592.91370	-433.56897	128.00230	587.84808	-440.67242	7.65713	556.43298	511.10556	163.00830	545.01080	503.50873	
2815	28.140	-134.19243	108.16676	-293.35068	230.28423	28.41949	-303.28043	-139.03288	1.56572	329.62042	274.39807	70.08468	314.40759	92.98412	1147.27002	-711.56604	-31.61983	592.99023	-433.30649	128.20705	588.06378	-440.72125	7.90104	555.94000	511.43198	163.15689	544.47296	504.44443	
2816	28.150	-132.53757	98.22837	-292.45853	229.19948	28.31120	-303.44150	-139.61684	1.25056	329.54990	274.74887	60.42321	314.85501	93.46378	1147.65308	-710.50311	-31.30630	593.13977	-433.05731	128.89952	588.32458	-439.88916	8.20554	555.57947	511.65863	163.22118	544.06366	504.90820	
2817	28.160	-130.42841	88.38203	-291.39117	228.92064	28.41602	-303.37122	-139.94629	1.24031	329.51556	275.71927	51.18244	315.76758	93.85062	1148.10400	-709.99396	-30.52268	593.13092	-432.53168	129.22119	588.51196	-439.62900	8.73664	555.11469	512.16473	163.65633	543.88733	505.08871	
2818	28.170	-128.59055	78.85645	-290.42038	228.57886	28.45367	-303.30927	-140.40654	1.35335	329.47269	276.21533	42.22073	316.59818	93.53819	1148.50549	-709.16565	-30.12921	593.39191	-431.96582	129.62004	588.67554	-439.45932	9.21073	554.61395	512.64301	164.23984	543.57813	505.38974	
2819	28.180	-127.78777	69.55625	-289.41647	228.19214	28.49273	-303.10931	-141.01375	1.42583	329.59238	276.90643	33.58546	317.41150	94.10735	1148.77075	-708.48853	-29.98734	593.51514	-431.63434	130.05789	588.91101	-438.98935	9.41610	554.63055	512.85120	164.78297	543.10059	505.57654	
2820	28.190	-127.25906	59.52814	-288.39056	227.24701	28.41003	-303.18036	-141.88629	1.40959	329.72043	278.03207	25.94984	318.42654	94.19437	1149.02710	-707.68555	-29.48938	593.55225	-431.18488	130.62888	589.12830	-438.37076	9.91587	553.99597	513.21118	165.22922	542.38306	505.16650	
2821	28.200	-126.81407	49.91927	-286.62210	226.40958	28.31620	-303.11383	-142.35378	1.32473	329.88284	279.08521	19.06458	319.88898	94.19611	1149.11572	-706.89746	-28.78381	593.83228	-430.55661	130.84959	589.21503	-437.91907	11.08250	553.38348	514.03162	165.78719	542.37598	506.68164	
2822	28.210	-125.79843	43.21921	-284.90012	225.78300	28.29459	-303.07956	-142.66994	1.31105	329.86835	280.42508	12.68222	320.83743	94.72577	1149.41626	-706.09113	-29.07874	594.13135	-430.25995	131.37123	589.26111	-437.34055	11.34313	553.04462	514.22662	165.76378	541.96735	507.02438	
2823	28.220	-125.56342	36.60430	-283.62326	225.64127	28.41194	-303.02997	-142.71451	1.10990	329.95309	280.83414	8.11295	320.97156	95.44464	1149.63098	-705.64722	-28.35863	593.94238	-429.57901	131.36961	589.11383	-436.68170	12.14935	552.83954	514.77869	167.24286	541.42725	506.77988	
2824	28.230	-125.50594	33.21304	-283.98111	225.12523	28.47044	-302.99377	-143.08075	1.19562	330.15765	281.79376	7.66956	319.01718	95.57059	1149.90979	-704.75781	-28.05053	593.76270	-429.14294	131.89427	589.08008	-435.99152	12.61889	552.76666	515.41498	167.93498	541.80029	508.21149	
2825	28.240	-126.84293	30.90641	-285.75443	224.08961	28.26734	-303.07370	-144.59470	2.22933	330.00455	281.21689	6.25429	319.79944	95.29040	1150.04102	-704.35022	-27.45944	594.02832	-428.51086	132.45667	589.22162	-435.32053	13.10593	553.59949	516.21576	168.22069	542.65912	508.84421	
2826	28.250	-128.36371	31.87310	-284.00638	223.40976	28.28025	-302.54749	-145.02763	2.56838	330.31799	280.18597	6.65000	319.33005	95.71291	1150.16663	-703.72931	-26.84872	594.74261	-427.49277	133.02357	589.98297	-434.48163	13.84243	554.66882	517.07483	168.52312	543.34229	509.74805	
2827	28.260	-128.26639	31.46937	-284.99243	222.91483	29.28040	-302.83798	-145.33549	3.03670	330.31046	279.49860	6.45576	320.82700	96.17021	1150.47632	-703.73895	-25.79571	596.64056	-426.42880	134.08411	591.53528	-433.79831	14.41212	555.02258	517.90686	168.31194	543.63043	510.31653	
2828	28.270	-128.10583	32.40461	-283.56387	221.00206	32.70975	-302.27100	-145.88664	6.93370	328.60535	278.55194	5.29042	321.02896	96.63789	1151.21143	-702.95886	-26.03053	598.69226	-426.17688	134.47670	593.28192	-433.28177	14.64942	554.99493	518.25677	170.08987	543.47992	510.09476	
2829	28.280	-128.88568	32.33305	-284.38211	218.05327	37.07997	-298.81369	-142.66904	10.11344	331.29623	278.22720	5.01610	320.20508	98.03800	1152.60742	-701.49469	-25.83643	600.02277	-425.87619	134.60121	594.30292	-433.09900	15.07751	554.63452	518.31628	170.45476	543.18713	510.45062	
